<?xml version="1.0" standalone="no"?>
<!DOCTYPE svg PUBLIC "-//W3C//DTD SVG 20010904//EN"
 "http://www.w3.org/TR/2001/REC-SVG-20010904/DTD/svg10.dtd">
<svg version="1.0" xmlns="http://www.w3.org/2000/svg"
 width="512.000000pt" height="512.000000pt" viewBox="0 0 512.000000 512.000000"
 preserveAspectRatio="xMidYMid meet">

<g transform="translate(0.000000,512.000000) scale(0.100000,-0.100000)"
fill="#000000" stroke="none">
<path d="M987 5109 c-119 -13 -186 -40 -245 -97 -69 -68 -94 -128 -100 -234
l-4 -88 -189 0 c-166 0 -195 -2 -244 -21 -67 -25 -141 -94 -175 -164 l-25 -50
0 -1360 0 -1360 24 -53 c29 -64 112 -143 178 -168 45 -18 97 -19 823 -22 547
-2 786 0 813 8 25 7 45 22 57 43 24 39 25 68 4 108 -31 60 -10 59 -851 59
-853 0 -800 -4 -829 66 -21 50 -21 2588 0 2639 24 57 53 65 245 65 l171 0 2
-1142 3 -1143 28 -57 c35 -71 101 -131 176 -159 52 -19 68 -20 221 -14 253 11
429 -16 639 -97 124 -48 160 -46 199 12 31 45 25 94 -16 131 -62 56 -328 137
-522 160 -65 7 -168 10 -270 6 -133 -4 -170 -2 -193 10 -60 30 -57 -33 -57
1343 0 1377 -2 1313 57 1344 78 40 386 40 577 1 231 -48 489 -174 704 -344
l52 -41 0 -816 c0 -906 -3 -861 67 -890 43 -19 93 -5 123 33 20 25 20 39 20
849 l0 823 93 68 c356 266 711 377 1089 343 132 -12 173 -27 195 -71 10 -18
13 -222 13 -892 0 -793 1 -871 17 -897 34 -58 116 -68 164 -21 l29 29 0 717 0
716 185 -3 185 -3 27 -28 28 -27 5 -683 c5 -735 4 -712 57 -736 45 -21 92 -13
124 18 l30 30 -3 708 -3 708 -27 50 c-32 60 -87 114 -148 146 -42 22 -59 24
-250 29 l-205 5 -6 90 c-6 105 -36 172 -100 230 -89 80 -178 100 -449 99 -160
0 -202 -4 -311 -27 -275 -58 -545 -183 -775 -358 -28 -21 -58 -39 -67 -39 -9
0 -45 22 -80 48 -241 183 -516 305 -808 358 -105 19 -356 26 -472 13z"/>
<path d="M2965 2544 c-87 -19 -202 -68 -277 -118 -91 -60 -198 -181 -252 -284
-207 -402 -45 -865 516 -1473 189 -205 643 -610 734 -656 54 -27 89 -12 219
93 587 473 1017 986 1158 1381 89 247 70 486 -52 693 -257 432 -853 509 -1208
155 l-73 -72 -35 42 c-74 91 -245 194 -380 231 -87 23 -264 27 -350 8z m255
-208 c176 -32 321 -140 402 -299 33 -66 77 -93 133 -83 38 8 63 33 101 106 16
30 58 84 94 120 111 111 239 164 395 164 191 -1 361 -90 464 -244 229 -344 50
-781 -579 -1411 -172 -172 -255 -247 -481 -436 -14 -11 -30 -1 -124 77 -492
410 -855 836 -997 1170 -68 158 -83 290 -48 424 55 217 241 383 464 416 75 11
94 11 176 -4z"/>
</g>
</svg>
