<?xml version="1.0" standalone="no"?>
<!DOCTYPE svg PUBLIC "-//W3C//DTD SVG 20010904//EN"
 "http://www.w3.org/TR/2001/REC-SVG-20010904/DTD/svg10.dtd">
<svg version="1.0" xmlns="http://www.w3.org/2000/svg"
 width="32.000000pt" height="32.000000pt" viewBox="0 0 32.000000 32.000000"
 preserveAspectRatio="xMidYMid meet">

<g transform="translate(0.000000,32.000000) scale(0.100000,-0.100000)"
fill="#000000" stroke="none">
<path d="M40 186 l0 -94 33 -7 c17 -4 42 -13 55 -21 l22 -14 0 94 c0 90 -1 95
-26 115 -15 12 -40 21 -55 21 l-29 0 0 -94z"/>
<path d="M196 259 c-25 -20 -26 -25 -26 -115 l0 -94 23 14 c12 8 37 17 55 21
l32 7 0 94 0 94 -29 0 c-15 0 -40 -9 -55 -21z"/>
<path d="M0 141 l0 -100 64 2 c57 2 62 3 43 14 -12 7 -31 12 -42 13 -36 0 -45
20 -45 97 0 42 -4 73 -10 73 -6 0 -10 -40 -10 -99z"/>
<path d="M300 167 c0 -77 -9 -97 -45 -97 -11 -1 -30 -6 -42 -13 -19 -11 -14
-12 43 -14 l64 -2 0 100 c0 59 -4 99 -10 99 -6 0 -10 -31 -10 -73z"/>
</g>
</svg>
